<?xml version="1.0" encoding="UTF-8"?>
<svg version="1.1" xmlns="http://www.w3.org/2000/svg" width="192" height="192">
<path d="M0 0 C63.36 0 126.72 0 192 0 C192 54.45 192 108.9 192 165 C128.64 165 65.28 165 0 165 C0 110.55 0 56.1 0 0 Z " fill="#000000" transform="translate(0,14)"/>
<path d="M0 0 C0 8.58 0 17.16 0 26 C-2.31 24.68 -4.62 23.36 -7 22 C-7.25724854 22.70995117 -7.51449707 23.41990234 -7.77954102 24.15136719 C-9.09350338 27.21824313 -10.68673462 29.79596719 -12.52734375 32.578125 C-13.23149414 33.64788574 -13.93564453 34.71764648 -14.66113281 35.81982422 C-15.41989507 36.96323393 -16.17868472 38.10662547 -16.9375 39.25 C-17.71632652 40.43081862 -18.49464326 41.61197363 -19.27246094 42.79345703 C-20.81343018 45.13381387 -22.35607538 47.4730509 -23.89990234 49.81152344 C-26.53902145 53.81837017 -29.15032739 57.84249148 -31.75 61.875 C-32.60274014 63.19539288 -33.45560535 64.51570499 -34.30859375 65.8359375 C-34.73640137 66.49819336 -35.16420898 67.16044922 -35.60498047 67.84277344 C-38.33555263 72.06526829 -41.07365736 76.28286666 -43.8125 80.5 C-44.34004883 81.3132373 -44.86759766 82.12647461 -45.41113281 82.96435547 C-48.90126948 88.33625565 -52.43498138 93.67751067 -56 99 C-60.3459196 97.10873061 -61.75632507 94.39118699 -63.875 90.3125 C-68.37947173 81.95181602 -73.29505007 73.87588456 -78.30224609 65.80786133 C-78.88184082 64.8670874 -79.46143555 63.92631348 -80.05859375 62.95703125 C-80.57736084 62.12147705 -81.09612793 61.28592285 -81.63061523 60.42504883 C-83 58 -83 58 -85 53 C-102.49 53 -119.98 53 -138 53 C-138 48.05 -138 43.1 -138 38 C-117.21 38 -96.42 38 -75 38 C-73.02 41.63 -71.04 45.26 -69 49 C-66.35209779 53.4357194 -63.67677574 57.85056715 -60.97265625 62.25195312 C-60.45832031 63.09822266 -59.94398437 63.94449219 -59.4140625 64.81640625 C-58.9495166 65.57381104 -58.4849707 66.33121582 -58.00634766 67.11157227 C-57 69 -57 69 -57 71 C-56.34 71 -55.68 71 -55 71 C-54.77183594 70.33484375 -54.54367188 69.6696875 -54.30859375 68.984375 C-52.61409365 65.11990312 -50.38673054 61.76209906 -48.0625 58.25 C-47.06368607 56.72403427 -46.06499145 55.19799043 -45.06640625 53.671875 C-44.55609863 52.89521484 -44.04579102 52.11855469 -43.52001953 51.31835938 C-41.16292186 47.72327434 -38.83198693 44.11140224 -36.5 40.5 C-33.63665124 36.07171962 -30.77044219 31.64532848 -27.8984375 27.22265625 C-27.39248047 26.44277344 -26.88652344 25.66289063 -26.36523438 24.859375 C-25.39081924 23.35752415 -24.41559225 21.85619965 -23.43945312 20.35546875 C-21.08099098 16.75885107 -21.08099098 16.75885107 -19 13 C-20.65 12.34 -22.3 11.68 -24 11 C-24 10.34 -24 9.68 -24 9 C-20.56631406 7.49115787 -17.12746451 5.99446599 -13.6875 4.5 C-12.71103516 4.07074219 -11.73457031 3.64148438 -10.72851562 3.19921875 C-9.79072266 2.79316406 -8.85292969 2.38710938 -7.88671875 1.96875 C-7.02264404 1.59169922 -6.15856934 1.21464844 -5.26831055 0.82617188 C-3 0 -3 0 0 0 Z " fill="#4CB150" transform="translate(175,23)"/>
<path d="M0 0 C5.61 0 11.22 0 17 0 C17 11.88 17 23.76 17 36 C27.23 36 37.46 36 48 36 C48 40.62 48 45.24 48 50 C37.77 50 27.54 50 17 50 C17 66.83 17 83.66 17 101 C11.39 101 5.78 101 0 101 C0 67.67 0 34.34 0 0 Z " fill="#FA0001" transform="translate(17,62)"/>
<path d="M0 0 C0.66 0 1.32 0 2 0 C3.29345703 1.81323242 3.29345703 1.81323242 4.7578125 4.35546875 C5.29704346 5.28174072 5.83627441 6.2080127 6.3918457 7.16235352 C6.96378662 8.16065186 7.53572754 9.1589502 8.125 10.1875 C9.30773956 12.22185102 10.49132969 14.25570777 11.67578125 16.2890625 C12.24893066 17.27680664 12.82208008 18.26455078 13.41259766 19.28222656 C17.22328072 25.80645354 21.24383157 32.20352312 25.26171875 38.6015625 C25.63578857 39.200896 26.0098584 39.80022949 26.39526367 40.41772461 C27.43706542 42.0866795 28.48399491 43.75243037 29.53125 45.41796875 C31 48 31 48 31 50 C28.47040881 50.30063569 25.97645779 50.51525352 23.4375 50.6875 C22.73302734 50.77966797 22.02855469 50.87183594 21.30273438 50.96679688 C18.83497583 51.09189063 17.28952607 50.95929558 15 50 C12.06504459 46.68063914 10.11626569 42.87411503 8 39 C6.67791241 36.87058077 5.34436134 34.74824022 4 32.6328125 C2.66506686 30.46452579 1.33174285 28.29524761 0 26.125 C-0.69222656 25.02414063 -1.38445312 23.92328125 -2.09765625 22.7890625 C-2.74605469 21.726875 -3.39445312 20.6646875 -4.0625 19.5703125 C-4.65160156 18.61914551 -5.24070312 17.66797852 -5.84765625 16.68798828 C-7.19415812 13.54710151 -7.06491144 12.1994778 -6 9 C-4.66015625 6.54296875 -4.66015625 6.54296875 -3.0625 4.1875 C-2.53785156 3.39730469 -2.01320312 2.60710937 -1.47265625 1.79296875 C-0.98667969 1.20128906 -0.50070313 0.60960938 0 0 Z " fill="#F90101" transform="translate(131,111)"/>
<path d="M0 0 C3.26908691 1.52624422 4.86538438 2.73593966 6.8125 5.8125 C7.25207031 6.47894531 7.69164062 7.14539063 8.14453125 7.83203125 C9.28247359 10.71585772 8.97416572 12.06864678 8 15 C6.43359375 17.69140625 6.43359375 17.69140625 4.4375 20.5625 C3.71691406 21.61179688 2.99632812 22.66109375 2.25390625 23.7421875 C1.51011719 24.81726563 0.76632813 25.89234375 0 27 C-1.37914592 29.05973003 -2.75426933 31.12216015 -4.125 33.1875 C-4.79917969 34.16589844 -5.47335938 35.14429688 -6.16796875 36.15234375 C-8.04084675 38.90852085 -8.04084675 38.90852085 -9.23828125 41.75390625 C-10.60199573 44.59238688 -11.43435112 46.14116674 -14 48 C-19.59766677 49.09045457 -25.36382297 48.50838568 -31 48 C-29.49478413 43.63160176 -27.15354885 40.10922605 -24.5 36.375 C-18.98677727 28.49373976 -13.63855656 20.50822634 -8.3125 12.5 C-7.48959275 11.26350285 -6.66667626 10.02701184 -5.84375 8.79052734 C-3.89465535 5.86113384 -1.94692272 2.93083757 0 0 Z " fill="#F90101" transform="translate(103,113)"/>
<path d="M0 0 C0.33 0.99 0.66 1.98 1 3 C-0.3327443 5.32924578 -1.70340818 7.44366347 -3.25 9.625 C-4.17838995 10.97305942 -5.105422 12.32205479 -6.03125 13.671875 C-6.51851562 14.37763672 -7.00578125 15.08339844 -7.5078125 15.81054688 C-9.99097145 19.4540301 -12.3677345 23.1650899 -14.75 26.875 C-18.45068048 32.61690065 -22.17715573 38.33831924 -26 44 C-26.99 43.67 -27.98 43.34 -29 43 C-29 42.34 -29 41.68 -29 41 C-28.01 41 -27.02 41 -26 41 C-25.34 38.69 -24.68 36.38 -24 34 C-23.34 34 -22.68 34 -22 34 C-22 33.01 -22 32.02 -22 31 C-20.33333333 29.33333333 -18.66666667 27.66666667 -17 26 C-16.29485154 23.85266073 -16.29485154 23.85266073 -16 22 C-15.34 21.67 -14.68 21.34 -14 21 C-13.67 20.01 -13.34 19.02 -13 18 C-12.34 18 -11.68 18 -11 18 C-10.7525 17.34 -10.505 16.68 -10.25 16 C-8.68182955 12.23639093 -6.85494954 8.6288576 -5 5 C-4.34 5 -3.68 5 -3 5 C-2.690625 4.360625 -2.38125 3.72125 -2.0625 3.0625 C-1 1 -1 1 0 0 Z " fill="#55BD5A" transform="translate(145,78)"/>
<path d="M0 0 C0.33 0.99 0.66 1.98 1 3 C-0.41191748 5.63537988 -1.86657223 8.07006988 -3.5 10.5625 C-3.95616699 11.27470703 -4.41233398 11.98691406 -4.88232422 12.72070312 C-8.44444177 18.24704906 -12.13715066 23.67898899 -16 29 C-16.33 28.01 -16.66 27.02 -17 26 C-15.671875 23.73046875 -15.671875 23.73046875 -13.75 21.1875 C-11.07985288 17.54735931 -8.8403201 14.11365669 -7 10 C-6.34 10 -5.68 10 -5 10 C-4.731875 9.278125 -4.46375 8.55625 -4.1875 7.8125 C-3.01017502 5.02409874 -1.60854116 2.55904276 0 0 Z " fill="#59C35D" transform="translate(164,48)"/>
<path d="M0 0 C-0.99 1.485 -0.99 1.485 -2 3 C-1.835 3.78375 -1.67 4.5675 -1.5 5.375 C-0.8759196 8.65142211 -1.36563114 10.12039772 -3 13 C-5.125 14.3125 -5.125 14.3125 -7 15 C-6.43454163 11.04179141 -5.19097652 8.3340947 -3 5 C-5.475 4.01 -5.475 4.01 -8 3 C-8 2.34 -8 1.68 -8 1 C-5.29120665 -0.35439668 -2.99066732 -0.06501451 0 0 Z " fill="#54BB59" transform="translate(159,31)"/>
<path d="M0 0 C5.53846154 -0.36923077 5.53846154 -0.36923077 7.875 1.5 C8.24625 1.995 8.6175 2.49 9 3 C9.33 2.01 9.66 1.02 10 0 C10.33 0 10.66 0 11 0 C11 2.31 11 4.62 11 7 C10.34 6.34 9.68 5.68 9 5 C7.35 5.66 5.7 6.32 4 7 C4 5.35 4 3.7 4 2 C3.34 2 2.68 2 2 2 C2 3.65 2 5.3 2 7 C1.67 7 1.34 7 1 7 C0.67 4.69 0.34 2.38 0 0 Z " fill="#BBBBBB" transform="translate(172,155)"/>
<path d="M0 0 C0.99 0.33 1.98 0.66 3 1 C2.34 1 1.68 1 1 1 C-0.08880074 3.15753142 -1.15204745 5.32215993 -2.18359375 7.5078125 C-2.80427734 8.80332031 -2.80427734 8.80332031 -3.4375 10.125 C-3.84871094 10.99382812 -4.25992188 11.86265625 -4.68359375 12.7578125 C-6 15 -6 15 -9 17 C-8.52723188 11.94213158 -7.0138679 9.12916139 -3.9375 5.125 C-3.20402344 4.15820312 -2.47054687 3.19140625 -1.71484375 2.1953125 C-1.14894531 1.47085938 -0.58304688 0.74640625 0 0 Z " fill="#53BD57" transform="translate(133,73)"/>
<path d="M0 0 C1.37562854 1.28965176 2.70766393 2.62689293 4 4 C4 4.66 4 5.32 4 6 C4.66 6 5.32 6 6 6 C8.31 10.95 10.62 15.9 13 21 C12.34 21 11.68 21 11 21 C10.45730469 20.04738281 9.91460937 19.09476563 9.35546875 18.11328125 C8.63284161 16.84633756 7.91018373 15.57941141 7.1875 14.3125 C6.83107422 13.68666016 6.47464844 13.06082031 6.10742188 12.41601562 C5.75615234 11.80048828 5.40488281 11.18496094 5.04296875 10.55078125 C4.52549072 9.64320068 4.52549072 9.64320068 3.99755859 8.71728516 C3.10670309 7.1836881 2.17509419 5.67393189 1.23828125 4.16796875 C0 2 0 2 0 0 Z " fill="#58C15D" transform="translate(103,97)"/>
<path d="M0 0 C1.32 0 2.64 0 4 0 C4 6.6 4 13.2 4 20 C3.67 20 3.34 20 3 20 C2.93941406 19.10796875 2.87882813 18.2159375 2.81640625 17.296875 C2.73261719 16.12640625 2.64882812 14.9559375 2.5625 13.75 C2.48128906 12.58984375 2.40007812 11.4296875 2.31640625 10.234375 C2.06752213 7.69022624 1.71885058 5.44046752 1 3 C0.34 3 -0.32 3 -1 3 C-0.67 2.01 -0.34 1.02 0 0 Z " fill="#5BCE60" transform="translate(170,24)"/>
<path d="M0 0 C0.99 0.495 0.99 0.495 2 1 C2 1.66 2 2.32 2 3 C2.66 3 3.32 3 4 3 C5.32 5.97 6.64 8.94 8 12 C7.01 12.495 7.01 12.495 6 13 C4.99193149 11.40089132 3.99379615 9.79551738 3 8.1875 C2.443125 7.29417969 1.88625 6.40085937 1.3125 5.48046875 C0 3 0 3 0 0 Z " fill="#57C05C" transform="translate(95,83)"/>
<path d="M0 0 C-0.99 1.485 -0.99 1.485 -2 3 C-2 3.66 -2 4.32 -2 5 C-4.16874252 4.49396008 -5.99967627 4.00016187 -8 3 C-8 2.34 -8 1.68 -8 1 C-5.29120665 -0.35439668 -2.99066732 -0.06501451 0 0 Z " fill="#59C35D" transform="translate(159,31)"/>
<path d="M0 0 C0.33 0 0.66 0 1 0 C1 2.31 1 4.62 1 7 C0.34 6.34 -0.32 5.68 -1 5 C-2.98 5.99 -2.98 5.99 -5 7 C-4.67 5.35 -4.34 3.7 -4 2 C-3.01 2.33 -2.02 2.66 -1 3 C-0.67 2.01 -0.34 1.02 0 0 Z " fill="#B3B3B3" transform="translate(182,155)"/>
<path d="M0 0 C0.33 0.99 0.66 1.98 1 3 C-0.9375 6.1875 -0.9375 6.1875 -3 9 C-3.99 8.67 -4.98 8.34 -6 8 C-6 7.34 -6 6.68 -6 6 C-5.01 6 -4.02 6 -3 6 C-2.690625 5.195625 -2.38125 4.39125 -2.0625 3.5625 C-1 1 -1 1 0 0 Z " fill="#5AC45E" transform="translate(122,113)"/>
<path d="M0 0 C0.99 0.33 1.98 0.66 3 1 C2.34 1 1.68 1 1 1 C0.7525 1.556875 0.505 2.11375 0.25 2.6875 C-1.21606015 5.39971127 -3.02989471 7.63587365 -5 10 C-4.49701212 5.59885603 -2.91227269 3.28804981 0 0 Z " fill="#59C55E" transform="translate(133,73)"/>
<path d="M0 0 C3.35620271 1.38877354 5.07298728 2.91677965 7 6 C7 6.66 7 7.32 7 8 C2.60841671 6.5361389 2.12052567 4.02168662 0 0 Z " fill="#56C05B" transform="translate(88,74)"/>
</svg>
